# xmcd
#
# Track frame offsets:
#	150
#	15889
#	25045
#	46231
#	63474
#	68850
#	82363
#	91584
#	107300
#	120754
#	135112
#	149942
#	167711
#
# Disc length: 2441 seconds
#
# Revision: 1
# Processed by: cddbd v1.5.2PL0 Copyright (c) Steve Scherf et al.
# Submitted via: audiograbber 1.83.01
#
DISCID=9b09870d
DTITLE=Moni and her Mosquitoes - Smile
DYEAR=1900
DGENRE=Country
TTITLE0=Achy Breaky Heart
TTITLE1=Daddy sang Bass
TTITLE2=Smile
TTITLE3=Free Wheeling Spirit
TTITLE4=June Apple
TTITLE5=Keep on the sunny side
TTITLE6=Don't be a Lemming Polka
TTITLE7=You light up my life
TTITLE8=Maybe God's a woman too
TTITLE9=You remind me
TTITLE10=Down to the river to pray
TTITLE11=Lone Wolf
TTITLE12=Lay down
EXTD=
EXTT0=
EXTT1=
EXTT2=
EXTT3=
EXTT4=
EXTT5=
EXTT6=
EXTT7=
EXTT8=
EXTT9=
EXTT10=
EXTT11=
EXTT12=
PLAYORDER=
